<?xml version="1.0" encoding="utf-8"?>
<!-- Generator: Adobe Illustrator 25.1.0, SVG Export Plug-In . SVG Version: 6.00 Build 0)  -->
<svg version="1.1" xmlns="http://www.w3.org/2000/svg" xmlns:xlink="http://www.w3.org/1999/xlink" x="0px" y="0px"
	 viewBox="0 0 750 500" style="enable-background:new 0 0 750 500;" xml:space="preserve">
<style type="text/css">
	.st0{fill:#E4EAFE;}
	.st1{fill:#4779F6;}
	.st2{fill:#072BDB;}
	.st3{fill:#0024A8;}
	.st4{fill:#054DDD;}
	.st5{fill:#130751;}
	.st6{fill:#B6CEFF;}
	.st7{opacity:0.24;fill:#FFFFFF;}
	.st8{clip-path:url(#SVGID_2_);fill:#FFFFFF;}
	.st9{clip-path:url(#SVGID_2_);}
	.st10{fill:#FFFFFF;}
	.st11{clip-path:url(#SVGID_4_);fill:#FFFFFF;}
	.st12{clip-path:url(#SVGID_4_);}
	.st13{fill:#FCA232;}
	.st14{opacity:0.51;}
	.st15{clip-path:url(#SVGID_6_);fill:#B6CEFF;}
	.st16{clip-path:url(#SVGID_6_);fill:#FFFFFF;}
</style>
<g id="BACKGROUND">
	<rect class="st0" width="750" height="500"/>
</g>
<g id="OBJECTS">
	<g>
		<rect x="182.25" y="409.46" class="st1" width="414.95" height="15.54"/>
		<polygon class="st2" points="544.49,354.44 234.96,354.44 182.25,409.46 597.2,409.46 		"/>
	</g>
	<ellipse class="st3" cx="387.81" cy="382.98" rx="153.13" ry="14.33"/>
	<g>
		<g>
			<g>
				<polygon class="st4" points="357.13,332.69 350.53,378.48 428.91,378.48 421.49,332.69 				"/>
				<rect x="323.31" y="385.08" class="st4" width="132.84" height="3.3"/>
				<polygon class="st1" points="350.53,378.48 323.31,385.08 456.14,385.08 428.91,378.48 				"/>
			</g>
			<g>
				<path class="st5" d="M542.85,309.11H236.6V150.29c0-7,5.68-12.68,12.68-12.68h280.89c7.01,0,12.68,5.68,12.68,12.68V309.11z"/>
				<path class="st1" d="M530.22,338.47H249.23c-6.98,0-12.63-5.65-12.63-12.63v-16.72h306.25v16.72
					C542.85,332.81,537.2,338.47,530.22,338.47z"/>
				<rect x="247.9" y="147.5" class="st6" width="283.66" height="150.99"/>
				<path class="st5" d="M395.71,322.62c0,3.3-2.68,5.98-5.98,5.98c-3.3,0-5.98-2.68-5.98-5.98s2.68-5.98,5.98-5.98
					C393.03,316.64,395.71,319.32,395.71,322.62z"/>
			</g>
			<g>
				<g>
					<rect x="292.62" y="164.74" class="st1" width="100.44" height="117.24"/>
					<rect x="307.13" y="180.73" class="st0" width="71.41" height="6.39"/>
					<rect x="307.13" y="192.45" class="st0" width="71.41" height="6.39"/>
					<rect x="307.13" y="204.17" class="st0" width="71.41" height="6.39"/>
					<rect x="307.13" y="215.9" class="st0" width="71.41" height="6.39"/>
					<rect x="307.13" y="227.62" class="st0" width="71.41" height="6.39"/>
					<rect x="307.13" y="239.35" class="st0" width="71.41" height="6.39"/>
					<rect x="307.13" y="251.07" class="st0" width="71.41" height="6.39"/>
					<rect x="307.13" y="262.79" class="st0" width="71.41" height="6.39"/>
				</g>
				<g>
					<path class="st5" d="M460.69,207.26v-10.22h-6.36c-0.54-2.32-1.44-4.51-2.64-6.48l4.53-4.53l-7.22-7.22l-4.5,4.5
						c-1.97-1.23-4.14-2.15-6.45-2.71v-6.41h-10.22v6.36c-2.32,0.54-4.51,1.43-6.48,2.64l-4.53-4.53l-7.22,7.22l4.5,4.5
						c-1.23,1.97-2.15,4.14-2.71,6.45h-6.41v10.22h6.36c0.54,2.32,1.44,4.51,2.64,6.48l-4.53,4.53l7.22,7.22l4.5-4.5
						c1.96,1.23,4.14,2.15,6.45,2.71v6.41h10.22v-6.36c2.32-0.54,4.51-1.44,6.48-2.64l4.53,4.53l7.22-7.22l-4.5-4.5
						c1.23-1.97,2.15-4.14,2.71-6.45H460.69z M432.83,211.86c-5.42,0-9.82-4.4-9.82-9.82c0-5.42,4.4-9.82,9.82-9.82
						c5.42,0,9.82,4.4,9.82,9.82C442.65,207.46,438.25,211.86,432.83,211.86z"/>
					<path class="st5" d="M498.8,238.6v-8.04h-5.01c-0.42-1.83-1.13-3.55-2.08-5.11l3.57-3.57l-5.69-5.69l-3.54,3.54
						c-1.55-0.97-3.26-1.69-5.08-2.14v-5.05h-8.04v5.01c-1.83,0.42-3.55,1.13-5.11,2.08l-3.57-3.57l-5.69,5.69l3.54,3.54
						c-0.97,1.55-1.69,3.26-2.14,5.08h-5.05v8.04h5.01c0.42,1.83,1.13,3.55,2.08,5.11l-3.57,3.57l5.69,5.69l3.54-3.54
						c1.55,0.97,3.26,1.7,5.08,2.14v5.05h8.04v-5.01c1.83-0.42,3.55-1.13,5.11-2.08l3.57,3.57l5.69-5.69l-3.54-3.54
						c0.97-1.55,1.69-3.26,2.14-5.08H498.8z M476.86,242.22c-4.27,0-7.73-3.46-7.73-7.73c0-4.27,3.46-7.73,7.73-7.73
						c4.27,0,7.73,3.46,7.73,7.73C484.59,238.75,481.13,242.22,476.86,242.22z"/>
					<path class="st5" d="M454.76,257.21v-5.71h-3.55c-0.3-1.3-0.8-2.52-1.47-3.62l2.53-2.53l-4.04-4.04l-2.51,2.51
						c-1.1-0.69-2.31-1.2-3.6-1.52v-3.58h-5.71v3.55c-1.3,0.3-2.52,0.8-3.62,1.48l-2.53-2.53l-4.04,4.04l2.51,2.51
						c-0.69,1.1-1.2,2.31-1.52,3.6h-3.58v5.71h3.55c0.3,1.3,0.8,2.52,1.48,3.62l-2.53,2.53l4.04,4.04l2.51-2.51
						c1.1,0.69,2.31,1.2,3.6,1.52v3.58h5.71v-3.55c1.3-0.3,2.52-0.8,3.62-1.48l2.53,2.53l4.04-4.04l-2.51-2.51
						c0.69-1.1,1.2-2.31,1.52-3.6H454.76z M439.2,259.77c-3.03,0-5.48-2.46-5.48-5.48c0-3.03,2.46-5.49,5.48-5.49
						c3.03,0,5.48,2.46,5.48,5.49C444.68,257.32,442.23,259.77,439.2,259.77z"/>
				</g>
			</g>
		</g>
		<polygon class="st7" points="382.51,147.5 321.52,298.49 355.28,298.49 415.72,147.5 		"/>
		<polygon class="st7" points="436.72,147.5 379.78,298.49 393.34,298.49 451.27,147.5 		"/>
	</g>
	<g id="XMLID_9074_">
		<path id="XMLID_9075_" class="st1" d="M576.83,360.63l2.69,0.01c15.03-0.63,26.78-12.88,26.78-27.93
			c0-15.06-11.75-27.3-26.78-27.94l-2.66-0.01c-0.01,0.01-0.02,0.01-0.03,0.02c-14.85,0.79-26.47,13.03-26.47,27.93
			C550.36,347.59,561.97,359.84,576.83,360.63z M559.94,350.78c1.77-1.29,3.69-2.39,5.72-3.29c1.92,4.02,4.6,7.57,7.96,10.57
			C568.45,357.1,563.65,354.55,559.94,350.78z M577.24,358.24c-4.09-3.07-7.39-7.06-9.57-11.56c3.07-1.11,6.28-1.75,9.57-1.9V358.24
			z M577.24,342.62c-3.59,0.15-7.1,0.85-10.45,2.08c-1.27-3.17-2.02-6.53-2.23-10l12.68-0.01V342.62z M577.24,332.53l-12.75,0.01
			c0.02-3.55,0.6-7.03,1.74-10.35c3.51,1.38,7.21,2.17,11.01,2.33V332.53z M582.66,358.13c3.52-3.12,6.29-6.83,8.23-11.03
			c2.18,0.88,4.24,2,6.15,3.34C593.19,354.51,588.14,357.2,582.66,358.13z M598.47,348.8c-2.09-1.48-4.36-2.72-6.75-3.7
			c1.28-3.32,2.03-6.82,2.23-10.42l10.09-0.01C603.65,339.87,601.73,344.74,598.47,348.8z M599.28,317.66
			c3.14,4.36,4.81,9.48,4.85,14.86l-10.11,0.01c-0.02-3.68-0.61-7.3-1.77-10.76C594.74,320.68,597.1,319.3,599.28,317.66z
			 M597.94,315.96c-2,1.51-4.16,2.77-6.44,3.77c-1.93-4.74-4.97-9.01-8.85-12.47C588.61,308.27,593.98,311.32,597.94,315.96z
			 M579.41,307.38c4.51,3.47,7.98,7.99,10.08,13.15c-3.24,1.16-6.63,1.78-10.08,1.86V307.38z M579.41,324.55
			c3.7-0.07,7.34-0.74,10.83-1.99c1.06,3.21,1.6,6.56,1.62,9.97l-12.45,0.01V324.55z M579.41,334.69l12.38-0.01
			c-0.2,3.34-0.9,6.59-2.1,9.67c-3.31-1.11-6.77-1.7-10.29-1.77V334.69z M579.41,344.75c3.23,0.07,6.4,0.6,9.44,1.6
			c-2.13,4.53-5.38,8.53-9.44,11.66V344.75z M577.24,307.16v15.2c-3.52-0.16-6.96-0.9-10.23-2.19
			C569.18,315.05,572.7,310.57,577.24,307.16z M573.62,307.33c-3.72,3.33-6.67,7.44-8.59,11.98c-2.13-1.01-4.14-2.26-6-3.72
			C562.87,311.26,568,308.37,573.62,307.33z M557.66,317.26c2.04,1.61,4.25,2.97,6.58,4.07c-1.25,3.59-1.89,7.35-1.91,11.21
			l-9.81,0.01C552.55,326.98,554.33,321.71,557.66,317.26z M552.6,334.7l9.8-0.01c0.21,3.75,1.01,7.38,2.39,10.81
			c-2.24,0.99-4.36,2.22-6.31,3.66C555.04,345.03,553.01,340.05,552.6,334.7z"/>
	</g>
	<g>
		<rect x="188" y="223.36" class="st1" width="79.33" height="16.73"/>
		<g>
			<defs>
				<path id="SVGID_1_" d="M201.84,230.82c0,2.86-2.32,5.17-5.17,5.17c-2.86,0-5.17-2.32-5.17-5.17s2.32-5.17,5.17-5.17
					C199.53,225.65,201.84,227.96,201.84,230.82z"/>
			</defs>
			<clipPath id="SVGID_2_">
				<use xlink:href="#SVGID_1_"  style="overflow:visible;"/>
			</clipPath>
			<path class="st8" d="M201.84,230.82c0,2.86-2.32,5.17-5.17,5.17c-2.86,0-5.17-2.32-5.17-5.17s2.32-5.17,5.17-5.17
				C199.53,225.65,201.84,227.96,201.84,230.82z"/>
			<g class="st9">
				<path class="st1" d="M198.47,228.93c0,1-0.81,1.8-1.8,1.8c-1,0-1.8-0.81-1.8-1.8c0-1,0.81-1.8,1.8-1.8
					C197.66,227.13,198.47,227.93,198.47,228.93z"/>
				<path class="st1" d="M200.24,236.06h-7.15v-2.21c0-1.65,1.34-2.99,2.99-2.99h1.16c1.65,0,2.99,1.34,2.99,2.99V236.06z"/>
			</g>
		</g>
		<rect x="204.37" y="227.62" class="st10" width="52.8" height="0.8"/>
		<rect x="204.37" y="230.02" class="st10" width="52.8" height="0.8"/>
		<rect x="204.37" y="232.42" class="st10" width="52.8" height="0.8"/>
		<rect x="204.37" y="234.82" class="st10" width="52.8" height="0.8"/>
	</g>
	<g>
		<rect x="188" y="245.9" class="st1" width="79.33" height="16.73"/>
		<g>
			<defs>
				<path id="SVGID_3_" d="M201.84,253.36c0,2.86-2.32,5.17-5.17,5.17c-2.86,0-5.17-2.32-5.17-5.17c0-2.86,2.32-5.17,5.17-5.17
					C199.53,248.19,201.84,250.5,201.84,253.36z"/>
			</defs>
			<clipPath id="SVGID_4_">
				<use xlink:href="#SVGID_3_"  style="overflow:visible;"/>
			</clipPath>
			<path class="st11" d="M201.84,253.36c0,2.86-2.32,5.17-5.17,5.17c-2.86,0-5.17-2.32-5.17-5.17c0-2.86,2.32-5.17,5.17-5.17
				C199.53,248.19,201.84,250.5,201.84,253.36z"/>
			<g class="st12">
				<path class="st1" d="M198.47,251.47c0,1-0.81,1.8-1.8,1.8c-1,0-1.8-0.81-1.8-1.8c0-1,0.81-1.8,1.8-1.8
					C197.66,249.67,198.47,250.48,198.47,251.47z"/>
				<path class="st1" d="M200.24,258.6h-7.15v-2.21c0-1.65,1.34-2.99,2.99-2.99h1.16c1.65,0,2.99,1.34,2.99,2.99V258.6z"/>
			</g>
		</g>
		<rect x="204.37" y="250.16" class="st10" width="52.8" height="0.8"/>
		<rect x="204.37" y="252.56" class="st10" width="52.8" height="0.8"/>
		<rect x="204.37" y="254.97" class="st10" width="52.8" height="0.8"/>
		<rect x="204.37" y="257.37" class="st10" width="52.8" height="0.8"/>
	</g>
	<g>
		<path class="st10" d="M299.75,109.06c-0.25,0-0.49,0.01-0.73,0.02c0.48-1.96,0.73-4.01,0.73-6.12c0-14.3-11.59-25.89-25.89-25.89
			c-6.02,0-11.56,2.06-15.96,5.51c-4.13-8.8-13.07-14.9-23.44-14.9c-12.39,0-22.75,8.71-25.29,20.35c-2.68-0.94-5.56-1.46-8.57-1.46
			c-13.15,0-24,9.8-25.66,22.5c-0.08,0-0.15-0.01-0.23-0.01c-7.38,0-13.81,4.04-17.21,10.02c-0.9,1.58,0.24,3.55,2.06,3.55h33.93
			h17.85h51.78h17.83h33.93c1.82,0,2.96-1.97,2.06-3.55C313.56,113.1,307.13,109.06,299.75,109.06z"/>
		<g>
			<polygon class="st1" points="236.83,127.96 219.34,97.66 201.84,127.96 213.5,127.96 213.5,165.8 225.17,165.8 225.17,127.96 			
				"/>
			<polygon class="st13" points="237.64,135.5 255.14,165.8 272.63,135.5 260.97,135.5 260.97,97.66 249.3,97.66 249.3,135.5 			"/>
		</g>
	</g>
	<g class="st14">
		<rect x="510.53" y="168.05" class="st1" width="119.95" height="65.06"/>
		<rect x="515.98" y="174.68" class="st0" width="99.9" height="4.68"/>
		<rect x="515.98" y="182.28" class="st0" width="69.84" height="4.68"/>
		<rect x="515.98" y="189.88" class="st0" width="85.47" height="4.68"/>
		<rect x="515.98" y="197.48" class="st0" width="99.9" height="4.68"/>
		<rect x="515.98" y="205.08" class="st0" width="92.19" height="4.68"/>
		<rect x="515.98" y="212.68" class="st0" width="81.93" height="4.68"/>
		<rect x="515.98" y="220.29" class="st0" width="94.16" height="4.68"/>
	</g>
	<g>
		<g>
			<path class="st5" d="M190.2,316.74h-21c-2.53,0-4.59,2.05-4.59,4.59v40.82c0,2.53,2.05,4.59,4.59,4.59h21
				c2.53,0,4.59-2.05,4.59-4.59v-40.82C194.79,318.8,192.74,316.74,190.2,316.74z"/>
			<g>
				<defs>
					<path id="SVGID_5_" d="M188.46,319.11h-17.52c-2.11,0-3.83,1.71-3.83,3.83v34.06c0,2.11,1.71,3.83,3.83,3.83h17.52
						c2.11,0,3.83-1.71,3.83-3.83v-34.06C192.29,320.82,190.58,319.11,188.46,319.11z"/>
				</defs>
				<clipPath id="SVGID_6_">
					<use xlink:href="#SVGID_5_"  style="overflow:visible;"/>
				</clipPath>
				<path class="st15" d="M188.46,319.11h-17.52c-2.11,0-3.83,1.71-3.83,3.83v34.06c0,2.11,1.71,3.83,3.83,3.83h17.52
					c2.11,0,3.83-1.71,3.83-3.83v-34.06C192.29,320.82,190.58,319.11,188.46,319.11z"/>
				<polygon class="st16" points="161.95,351.06 190.35,312.9 197.16,312.9 161.95,360.82 				"/>
				<polygon class="st16" points="164.62,366.15 198.34,319.11 198.34,323.55 164.62,371.47 				"/>
			</g>
			<path class="st10" d="M181.18,363.49c0,0.82-0.66,1.48-1.48,1.48c-0.82,0-1.48-0.66-1.48-1.48c0-0.82,0.66-1.48,1.48-1.48
				C180.52,362.01,181.18,362.67,181.18,363.49z"/>
		</g>
		<g>
			<rect x="188.19" y="328.13" class="st10" width="40.53" height="30.8"/>
			<g>
				<polygon class="st4" points="200.74,352.48 192.02,343.75 200.86,334.91 202.35,336.39 194.99,343.75 202.23,350.99 				"/>
			</g>
			<g>
				<polygon class="st4" points="215.72,352.48 214.24,350.99 221.6,343.63 214.36,336.39 215.84,334.91 224.57,343.63 				"/>
			</g>
			<g>
				
					<rect x="199.95" y="342.98" transform="matrix(0.3828 -0.9238 0.9238 0.3828 -189.2631 404.7587)" class="st4" width="16.69" height="2.1"/>
			</g>
			<rect x="188.19" y="324.55" class="st4" width="40.53" height="3.59"/>
		</g>
	</g>
</g>
</svg>
